<?xml version="1.0" encoding="UTF-8"?>
<svg id="_圖層_2" data-name="圖層 2" xmlns="http://www.w3.org/2000/svg" xmlns:xlink="http://www.w3.org/1999/xlink" viewBox="0 0 512.45 512.21">
  <defs>
    <style>
      .cls-1, .cls-2, .cls-3 {
        fill: none;
      }

      .cls-4 {
        stroke: #61b4e4;
      }

      .cls-4, .cls-5, .cls-6, .cls-7, .cls-8 {
        fill: #fff;
      }

      .cls-4, .cls-5, .cls-6, .cls-7, .cls-8, .cls-2, .cls-3 {
        stroke-linecap: round;
        stroke-linejoin: round;
        stroke-width: 40px;
      }

      .cls-5 {
        stroke: #f38b00;
      }

      .cls-6 {
        stroke: #00af41;
      }

      .cls-7 {
        stroke: #9a3820;
      }

      .cls-8, .cls-3 {
        stroke: #2d3748;
      }

      .cls-9 {
        clip-path: url(#clippath);
      }

      .cls-10 {
        fill: #e2e8f0;
      }

      .cls-11 {
        fill: #1a202c;
      }

      .cls-12 {
        fill: #2d3748;
      }

      .cls-2 {
        stroke: #e2231a;
      }
    </style>
    <clipPath id="clippath">
      <rect class="cls-1" x=".45" y=".21" width="512" height="512"/>
    </clipPath>
  </defs>
  <g id="_圖層_1-2" data-name="圖層 1">
    <rect class="cls-11" width="512" height="512" rx="20.01" ry="20.01"/>
    <g class="cls-9">
      <g>
        <line class="cls-8" x1=".07" y1="206.11" x2="173.69" y2="206.11"/>
        <line class="cls-6" x1=".45" y1="451.84" x2="174.07" y2="451.84"/>
        <line class="cls-5" x1="441.45" y1="381.21" x2="441.45" y2="564.21"/>
        <path class="cls-3" d="M476.76-31.37c0,74.83-60.67,135.5-135.5,135.5-74.83,0-135.5-60.67-135.5-135.5"/>
        <path class="cls-2" d="M393.65-156.69c69.06,28.84,101.66,108.2,72.82,177.25-28.84,69.06-108.2,101.66-177.25,72.82"/>
        <line class="cls-8" x1="425.49" y1="241.57" x2="548.26" y2="364.34"/>
        <line class="cls-7" x1="425.53" y1="241.3" x2="582.22" y2="84.61"/>
        <line class="cls-4" x1=".45" y1="206.59" x2="157.14" y2="49.9"/>
      </g>
    </g>
    <g>
      <path class="cls-12" d="M114.23,384.99c-1.54,0-2.79-1.25-2.79-2.79V130.89c0-2.8,2.92-2.83,2.95-2.83,.49,0,1.05,.1,1.81,.86l125.66,125.66c3.91,3.91,9.02,5.86,14.14,5.86s10.24-1.95,14.14-5.86l125.66-125.66c.76-.76,1.32-.86,1.81-.86,.03,0,2.95,.03,2.95,2.83v251.31c0,1.54-1.25,2.79-2.79,2.79H114.23Z"/>
      <path class="cls-10" d="M409.94,143.07h0m-278.5,29.38l96.27,96.27c7.81,7.81,18.05,11.72,28.28,11.72s20.47-3.91,28.28-11.72l96.27-96.27v192.54H131.45V172.45M397.61,108.06c-5.6,0-11.31,2.08-15.95,6.72l-125.66,125.66-125.66-125.66c-4.64-4.64-10.35-6.72-15.95-6.72-11.71,0-22.95,9.1-22.95,22.83v251.31c0,12.59,10.2,22.79,22.79,22.79H397.77c12.58,0,22.79-10.2,22.79-22.79V130.89c0-13.74-11.24-22.83-22.95-22.83h0Z"/>
    </g>
  </g>
</svg>