<?xml version="1.0" encoding="UTF-8"?>
<svg id="_圖層_2" data-name="圖層 2" xmlns="http://www.w3.org/2000/svg" xmlns:xlink="http://www.w3.org/1999/xlink" viewBox="0 0 512.56 512.11">
  <defs>
    <style>
      .cls-1, .cls-2, .cls-3 {
        fill: none;
      }

      .cls-4 {
        stroke: #61b4e4;
      }

      .cls-4, .cls-5, .cls-6, .cls-7, .cls-8, .cls-9 {
        fill: #fff;
      }

      .cls-4, .cls-5, .cls-6, .cls-7, .cls-8, .cls-2, .cls-3 {
        stroke-linecap: round;
        stroke-linejoin: round;
        stroke-width: 40px;
      }

      .cls-5, .cls-2 {
        stroke: #fff;
      }

      .cls-6 {
        stroke: #f38b00;
      }

      .cls-7 {
        stroke: #00af41;
      }

      .cls-8 {
        stroke: #9a3820;
      }

      .cls-10 {
        clip-path: url(#clippath);
      }

      .cls-11 {
        fill: #e2e8f0;
      }

      .cls-12 {
        fill: #1a202c;
      }

      .cls-3 {
        stroke: #e2231a;
      }
    </style>
    <clipPath id="clippath">
      <rect class="cls-1" x=".56" y=".11" width="512" height="512"/>
    </clipPath>
  </defs>
  <g id="_圖層_1-2" data-name="圖層 1">
    <g>
      <rect class="cls-11" x=".5" y=".5" width="511" height="511" rx="19.51" ry="19.51"/>
      <path d="M491.99,1c10.48,0,19.01,8.53,19.01,19.01V491.99c0,10.48-8.53,19.01-19.01,19.01H20.01c-10.48,0-19.01-8.53-19.01-19.01V20.01C1,9.53,9.53,1,20.01,1H491.99m0-1H20.01C8.96,0,0,8.96,0,20.01V491.99c0,11.05,8.96,20.01,20.01,20.01H491.99c11.05,0,20.01-8.96,20.01-20.01V20.01c0-11.05-8.96-20.01-20.01-20.01h0Z"/>
    </g>
    <g class="cls-10">
      <g>
        <line class="cls-5" x1=".18" y1="206.01" x2="173.8" y2="206.01"/>
        <line class="cls-7" x1=".56" y1="451.74" x2="174.18" y2="451.74"/>
        <line class="cls-6" x1="441.56" y1="381.11" x2="441.56" y2="564.11"/>
        <path class="cls-2" d="M476.88-31.46c0,74.83-60.67,135.5-135.5,135.5-74.83,0-135.5-60.67-135.5-135.5"/>
        <path class="cls-3" d="M393.76-156.78c69.06,28.84,101.66,108.2,72.82,177.25-28.84,69.06-108.2,101.66-177.25,72.82"/>
        <line class="cls-5" x1="425.61" y1="241.47" x2="548.37" y2="364.24"/>
        <line class="cls-8" x1="425.65" y1="241.2" x2="582.34" y2="84.51"/>
        <line class="cls-4" x1=".56" y1="206.49" x2="157.25" y2="49.8"/>
      </g>
    </g>
    <g>
      <path class="cls-9" d="M114.97,385c-1.54,0-2.79-1.25-2.79-2.79V130.9c0-2.8,2.92-2.83,2.95-2.83,.49,0,1.05,.1,1.8,.86l125.66,125.66c3.91,3.91,9.02,5.86,14.14,5.86s10.24-1.95,14.14-5.86l125.66-125.66c.76-.76,1.31-.86,1.8-.86,.03,0,2.95,.03,2.95,2.83v251.31c0,1.54-1.25,2.79-2.79,2.79H114.97Z"/>
      <path class="cls-12" d="M410.68,143.07h0m-29.38,29.38v192.54H132.18V172.46l96.27,96.27c7.81,7.81,18.05,11.72,28.28,11.72s20.47-3.91,28.28-11.72l96.27-96.27m17.05-64.39c-5.6,0-11.31,2.08-15.95,6.72l-125.66,125.66-125.66-125.66c-4.64-4.64-10.35-6.72-15.95-6.72-11.71,0-22.95,9.1-22.95,22.83v251.31c0,12.59,10.2,22.79,22.79,22.79H398.51c12.58,0,22.79-10.2,22.79-22.79V130.9c0-13.74-11.24-22.83-22.95-22.83h0Z"/>
    </g>
  </g>
</svg>