<?xml version="1.0" encoding="UTF-8"?>
<svg id="_圖層_2" data-name="圖層 2" xmlns="http://www.w3.org/2000/svg" viewBox="0 0 292 263.45">
  <defs>
    <style>
      .cls-1 {
        fill: #fff;
      }

      .cls-2 {
        fill: #1a202c;
      }
    </style>
  </defs>
  <g id="_圖層_1-2" data-name="圖層 1">
    <g>
      <path class="cls-1" d="M20.22,243.45c-.12,0-.22-.1-.22-.22V20.26c0-.05,0-.1,0-.13,.07-.05,.18-.09,.27-.11,.03,.02,.06,.05,.1,.09l111.49,111.49c3.91,3.91,9.02,5.86,14.14,5.86s10.24-1.95,14.14-5.86L271.63,20.1s.07-.07,.1-.09c.09,.02,.19,.07,.27,.11,0,.04,0,.08,0,.13V243.23c0,.12-.1,.22-.22,.22H20.22Z"/>
      <path class="cls-2" d="M285.77,34.25h0m-33.77,33.77V223.45H40V68.02l77.72,77.72c7.81,7.81,18.05,11.72,28.28,11.72s20.47-3.91,28.28-11.72l77.72-77.72M271.64,0C266.67,0,261.6,1.84,257.49,5.96l-111.49,111.49L34.51,5.96C30.39,1.84,25.33,0,20.36,0,9.97,0,0,8.07,0,20.26V243.23c0,11.17,9.05,20.22,20.22,20.22h251.57c11.17,0,20.22-9.05,20.22-20.22V20.26C292,8.07,282.03,0,271.64,0h0Z"/>
    </g>
  </g>
</svg>